<svg xmlns="http://www.w3.org/2000/svg" width="105.588" height="107.999" viewBox="0 0 105.588 107.999">
  <path id="ic_settings_24px" d="M89.783,58a39.739,39.739,0,0,0,.357-5,39.745,39.745,0,0,0-.357-5l10.761-8.415a2.573,2.573,0,0,0,.612-3.264l-10.2-17.646a2.563,2.563,0,0,0-3.111-1.122l-12.7,5.1a37.261,37.261,0,0,0-8.619-5L64.589,4.142A2.487,2.487,0,0,0,62.09,2H41.69a2.487,2.487,0,0,0-2.5,2.142L37.253,17.657a39.182,39.182,0,0,0-8.619,5l-12.7-5.1a2.488,2.488,0,0,0-3.111,1.122L2.624,36.323a2.514,2.514,0,0,0,.612,3.264L14,48a40.445,40.445,0,0,0-.357,5A40.445,40.445,0,0,0,14,58L3.236,66.413a2.573,2.573,0,0,0-.612,3.264l10.2,17.646a2.563,2.563,0,0,0,3.111,1.122l12.7-5.1a37.262,37.262,0,0,0,8.619,5l1.938,13.515A2.487,2.487,0,0,0,41.69,104h20.4a2.487,2.487,0,0,0,2.5-2.142l1.938-13.515a39.183,39.183,0,0,0,8.619-5l12.7,5.1a2.488,2.488,0,0,0,3.111-1.122l10.2-17.646a2.573,2.573,0,0,0-.612-3.264ZM51.89,70.85A17.85,17.85,0,1,1,69.74,53,17.869,17.869,0,0,1,51.89,70.85Z" transform="translate(0.928 1)" fill="none" stroke="#fff" stroke-width="6"/>
</svg>
