<svg xmlns="http://www.w3.org/2000/svg" width="163.352" height="169.797" viewBox="0 0 163.352 169.797">
  <path id="icon_prof_pp" d="M171.986,147.984l-42.523-22.24-1.964-6.069c-.588-2.033-1.518-4.066-3.432-4.6a2.9,2.9,0,0,1-1.476-2.033l-1.135-11.8a3.649,3.649,0,0,1,.887-2.554,26.052,26.052,0,0,0,5.785-13.445c.378-2.57,1.73-4.941,2.425-7.473l2.726-14.111c.285-1.853.229-3.281-1.865-4-.578-.2-1.08-1.146-1.08-2.565l.028-26.625c-.445-6.444-3.895-11.427-8.788-14.9-9.347-6.626-26.085-3.553-20.622-14.361.323-.636.22-1.741-2.026-.924C90.546,3.339,68.226,11.4,62.62,15.575c-5.018,3.74-8.342,8.451-8.788,14.9l.028,26.625c0,1.172-.5,2.365-1.081,2.565-2.094.718-2.149,2.146-1.865,4l2.727,14.111c.693,2.532,2.046,4.9,2.425,7.473A26.051,26.051,0,0,0,61.85,98.686a3.651,3.651,0,0,1,.887,2.554l-1.135,11.8a2.9,2.9,0,0,1-1.477,2.033c-1.914.534-2.845,2.567-3.433,4.6l-1.965,6.069L12.2,147.984a3.307,3.307,0,0,0-1.784,2.928v15.573a3.332,3.332,0,0,0,3.35,3.312H170.421a3.332,3.332,0,0,0,3.35-3.312V150.912A3.31,3.31,0,0,0,171.986,147.984Z" transform="translate(-10.419 0)" fill="#262626"/>
</svg>
