<svg xmlns="http://www.w3.org/2000/svg" width="132.369" height="121.003" viewBox="0 0 132.369 121.003">
  <path id="icon_prof_ph" d="M29.621,55.367c10.59,19.024,27.65,34.553,48.462,44.3L94.261,84.879a7.807,7.807,0,0,1,7.5-1.613A91.107,91.107,0,0,0,128.015,87.1c4.045,0,7.354,3.025,7.354,6.722v23.461c0,3.7-3.309,6.722-7.354,6.722C58.963,124,3,72.846,3,9.722,3,6.025,6.309,3,10.354,3H36.092c4.045,0,7.354,3.025,7.354,6.722a70.411,70.411,0,0,0,4.192,24A6.346,6.346,0,0,1,45.8,40.578Z" transform="translate(-3 -3)" fill="#262626"/>
</svg>
