<svg xmlns="http://www.w3.org/2000/svg" width="109.953" height="141.985" viewBox="0 0 109.953 141.985">
  <path id="icon_prof_pas" d="M163.958,63.519H91.389V35.5c0-13.392,12.825-24.287,28.588-24.287S148.564,22.1,148.564,35.5V46.705c0,3.1,2.954,5.6,6.6,5.6s6.6-2.509,6.6-5.6V35.5c0-19.573-18.743-35.5-41.782-35.5S78.194,15.924,78.194,35.5V63.519H76c-6.073,0-11,4.182-11,9.341v59.783c0,5.159,4.923,9.341,11,9.341h87.963c6.072,0,11-4.182,11-9.341V72.861C174.953,67.7,170.03,63.519,163.958,63.519Zm-57.176,31.76c0-6.191,5.907-11.209,13.194-11.209s13.194,5.018,13.194,11.209c0,4.149-2.654,7.768-6.6,9.706v16.449H113.379V104.985C109.436,103.047,106.782,99.428,106.782,95.279Z" transform="translate(-65)" fill="#262626"/>
</svg>
