<svg xmlns="http://www.w3.org/2000/svg" width="220.705" height="194.342" viewBox="0 0 220.705 194.342">
  <g id="love" transform="translate(13.605 -18.923)">
    <path id="Path_35" data-name="Path 35" d="M159.877,31c-23.192,0-40.4,14.243-51.025,34.448C98.23,45.244,81.021,31,57.828,31,24.4,31,0,59.07,0,93.3c0,45.266,43.189,73.684,104.652,127.465a6.379,6.379,0,0,0,8.4,0C174.459,167.032,217.7,138.57,217.7,93.3,217.7,59.064,193.3,31,159.877,31ZM108.852,207.5c-56.6-49.168-96.1-76.482-96.1-114.2,0-28.244,19.377-49.543,45.072-49.543,24.769,0,40.118,22.938,44.877,39.968a6.382,6.382,0,0,0,12.3,0c4.7-16.8,19.867-39.968,44.877-39.968,25.7,0,45.072,21.3,45.072,49.543C204.948,131.042,165.392,158.39,108.852,207.5Z" transform="translate(-12.105 -10.577)" fill="#656565" stroke="#656565" stroke-width="3"/>
  </g>
</svg>
