<svg xmlns="http://www.w3.org/2000/svg" width="340.472" height="324.54" viewBox="0 0 340.472 324.54">
  <g id="myhome" transform="translate(-0.001 -17.047)">
    <g id="Group_138" data-name="Group 138" transform="translate(0.001 17.047)">
      <g id="Group_137" data-name="Group 137">
        <path id="Path_110" data-name="Path 110" d="M334.757,160.32l-51.6-51.6V49.113a19.515,19.515,0,0,0-39.03,0V69.69l-38.42-38.422c-19-18.985-52.022-18.951-70.974.034L5.713,160.32a19.519,19.519,0,1,0,27.609,27.6L162.329,58.9a11.521,11.521,0,0,1,15.791-.012L307.149,187.919a19.519,19.519,0,1,0,27.608-27.6Z" transform="translate(-0.001 -17.047)" fill="#d93131"/>
        <path id="Path_111" data-name="Path 111" d="M198.476,130.557a9.579,9.579,0,0,0-13.555,0L71.434,244.01a9.606,9.606,0,0,0-2.807,6.788v82.748a35.163,35.163,0,0,0,35.161,35.161h56.187V281.691h63.434v87.015H279.6a35.162,35.162,0,0,0,35.16-35.16V250.8a9.568,9.568,0,0,0-2.807-6.788Z" transform="translate(-21.462 -51.666)" fill="#eaeaea" stroke="#a7acbf" stroke-width="15"/>
      </g>
    </g>
  </g>
</svg>
