<svg xmlns="http://www.w3.org/2000/svg" width="258.02" height="375.131" viewBox="0 0 258.02 375.131">
  <g id="Mylocation" transform="translate(-9.99)">
    <path id="Path_112" data-name="Path 112" d="M268.009,83.922c0,17.057-57.794,30.831-129.01,30.831S9.99,100.979,9.99,83.922c0-15.24,46.305-27.783,107.029-30.362H160.98c60.783,2.579,107.029,15.122,107.029,30.362Z" transform="translate(0 260.377)" fill="#e3e2e1"/>
    <path id="Path_113" data-name="Path 113" d="M131.465,0A119.873,119.873,0,0,0,11.54,119.866C11.54,186.1,131.465,344.3,131.465,344.3S251.331,186.1,251.331,119.866A119.823,119.823,0,0,0,131.465,0Zm0,199.23a79.364,79.364,0,1,1,79.364-79.364A79.348,79.348,0,0,1,131.465,199.23Z" transform="translate(7.535)" fill="#e82327"/>
  </g>
</svg>
