<svg xmlns="http://www.w3.org/2000/svg" width="164.541" height="152.906" viewBox="0 0 164.541 152.906">
  <g id="referrals" transform="translate(-10.029 -18.415)">
    <g id="Group_133" data-name="Group 133" transform="translate(10.029 18.415)">
      <g id="Group_132" data-name="Group 132">
        <path id="Path_104" data-name="Path 104" d="M63.183,18.893a30.032,30.032,0,0,0-23.15,20.849c-1.325,4.323-1.464,12.2-.209,16.317A31.043,31.043,0,0,0,59.348,76.489c3.068,1.046,10.669,1.674,13.527,1.116l1.534-.279.279-3.486c.976-12.691,9.413-25.8,19.664-30.681,3.068-1.464,3.068-1.464,2.789-3a27.449,27.449,0,0,0-2.092-5.369,31.025,31.025,0,0,0-12.9-13.039A30.4,30.4,0,0,0,63.183,18.893Z" transform="translate(-18.786 -18.415)" fill="#262626"/>
        <path id="Path_105" data-name="Path 105" d="M131.306,51.527a38.131,38.131,0,0,0-28.938,27.752,42.8,42.8,0,0,0,0,18.339,38.278,38.278,0,0,0,27.543,27.543c7.182,1.813,17.293,1.046,24.057-1.952a38.859,38.859,0,0,0,21.407-24.545,44.345,44.345,0,0,0,.7-17.432A37.529,37.529,0,0,0,138.907,50.9,51.031,51.031,0,0,0,131.306,51.527Z" transform="translate(-37.68 -28.248)" fill="#262626"/>
        <path id="Path_106" data-name="Path 106" d="M32.183,99.722a48.889,48.889,0,0,0-14.992,15.689,61.406,61.406,0,0,0-6.136,15.2c-1.674,6.694-2.162,6.066,5.439,6.066h6.624l9.065-9.065,9.065-9.065,7.112,7.112,7.112,7.112,3.765-3.765c3.208-3.208,9.344-7.949,11.087-8.577.418-.139.209-1.813-.906-6.345l-1.464-6.136-2.929.349c-10.808,1.325-19.733-1.464-27.613-8.507l-2.3-2.092Z" transform="translate(-10.029 -42.415)" fill="#262626"/>
        <path id="Path_107" data-name="Path 107" d="M27.491,158.1,14.8,170.305l7.043.209,7.112.209,1.185,4.742c4.114,16.177,14.922,27.125,32.145,32.494,2.3.7,4.951,1.464,5.788,1.6l1.534.279-1.325-.976a49.867,49.867,0,0,1-9.832-10.39c-4.184-6.485-6.555-14.155-7.112-23.29l-.279-4.672,7.461-.07,7.461-.139-12.76-12.2c-7.043-6.694-12.83-12.2-12.9-12.2S34.464,151.339,27.491,158.1Z" transform="translate(-11.473 -57.006)" fill="#262626"/>
        <path id="Path_108" data-name="Path 108" d="M96.509,154.21c-2.231,1.464-5.3,3.7-6.9,4.951L86.816,161.6l7.67,7.67c4.184,4.184,7.67,7.81,7.67,8.019s-5.439.349-11.993.349H78.1l.418,2.789a45.111,45.111,0,0,0,4.253,13.318c3.208,5.927,6.415,9.2,15.062,15.41l3.556,2.51h93.786v-3.7c-.07-23.5-9.274-41.419-27.4-53.413l-4.323-2.859-3.556,3.068a44.426,44.426,0,0,1-18.687,9.832c-4.811,1.185-14.573,1.046-19.385-.279-6.973-1.883-14.295-6-18.757-10.529a12.183,12.183,0,0,0-2.231-2.022A37.86,37.86,0,0,0,96.509,154.21Z" transform="translate(-30.635 -58.761)" fill="#262626"/>
      </g>
    </g>
  </g>
</svg>
