<svg xmlns="http://www.w3.org/2000/svg" width="344.816" height="309.371" viewBox="0 0 344.816 309.371">
  <g id="rejectJob" transform="translate(0 -26.315)">
    <g id="rejectJob-2" data-name="rejectJob" transform="translate(0 26.315)">
      <g id="Group_109" data-name="Group 109">
        <path id="Path_89" data-name="Path 89" d="M339.319,274.868l-131.8-228.28a40.546,40.546,0,0,0-70.228,0L5.5,274.867a40.546,40.546,0,0,0,35.114,60.819H304.2a40.545,40.545,0,0,0,35.115-60.818Zm-17.5,30.445A20.138,20.138,0,0,1,304.2,315.485H40.611a20.344,20.344,0,0,1-17.619-30.516l131.8-228.28a20.344,20.344,0,0,1,35.237,0l131.8,228.28A20.14,20.14,0,0,1,321.824,305.313Z" transform="translate(0 -26.315)" fill="#c00000"/>
      </g>
    </g>
    <g id="Group_112" data-name="Group 112" transform="translate(162.306 127.13)">
      <g id="Group_111" data-name="Group 111">
        <rect id="Rectangle_146" data-name="Rectangle 146" width="20.201" height="101.008" fill="#c00000"/>
      </g>
    </g>
    <g id="Group_114" data-name="Group 114" transform="translate(158.94 248.34)">
      <g id="Group_113" data-name="Group 113">
        <path id="Path_90" data-name="Path 90" d="M249.47,355.99a13.468,13.468,0,1,0,13.468,13.468A13.483,13.483,0,0,0,249.47,355.99Z" transform="translate(-236.002 -355.99)" fill="#c00000"/>
      </g>
    </g>
  </g>
</svg>
