<svg xmlns="http://www.w3.org/2000/svg" width="62" height="62" viewBox="0 0 62 62">
  <g id="shiftStarted" transform="translate(-1109 -1368)">
    <circle id="Ellipse_33" data-name="Ellipse 33" cx="31" cy="31" r="31" transform="translate(1109 1368)" fill="#6c9774"/>
    <path id="Icon_awesome-check" data-name="Icon awesome-check" d="M12.227,30.9.527,19.2a1.8,1.8,0,0,1,0-2.546L3.073,14.1a1.8,1.8,0,0,1,2.546,0L13.5,21.986,30.382,5.1a1.8,1.8,0,0,1,2.546,0L35.473,7.65a1.8,1.8,0,0,1,0,2.546l-20.7,20.7A1.8,1.8,0,0,1,12.227,30.9Z" transform="translate(1122 1381)" fill="#fff"/>
  </g>
</svg>
